<svg xmlns="http://www.w3.org/2000/svg" width="25" height="25" fill="none"><path fill="#fff" fill-rule="evenodd" d="M3.672 5.672C2.5 6.843 2.5 8.729 2.5 12.5c0 3.771 0 5.657 1.172 6.828C4.843 20.5 6.729 20.5 10.5 20.5h4c3.771 0 5.657 0 6.828-1.172C22.5 18.157 22.5 16.271 22.5 12.5c0-3.771 0-5.657-1.172-6.828C20.157 4.5 18.271 4.5 14.5 4.5h-4c-3.771 0-5.657 0-6.828 1.172ZM19.076 8.02a.75.75 0 0 1-.096 1.056l-2.196 1.83c-.887.74-1.605 1.338-2.24 1.746-.66.425-1.303.693-2.044.693-.741 0-1.384-.269-2.045-.693-.634-.408-1.352-1.007-2.239-1.745L6.02 9.077a.75.75 0 0 1 .96-1.153l2.16 1.799c.933.777 1.58 1.315 2.128 1.667.529.34.888.455 1.233.455.345 0 .704-.114 1.233-.455.547-.352 1.195-.89 2.128-1.667l2.159-1.8a.75.75 0 0 1 1.056.097Z" clip-rule="evenodd"/></svg>